<svg xmlns="http://www.w3.org/2000/svg" xmlns:xlink="http://www.w3.org/1999/xlink" id="Layer_1" x="0px" y="0px" viewBox="0 0 691.5 110.3" style="enable-background:new 0 0 691.5 110.3;" xml:space="preserve">
<style type="text/css">
	.st0{fill:#3CE045;}
	.st1{fill:#44FF4E;}
	.st2{fill:#30B438;}
	.st3{fill:#96FF9C;}
	.st4{fill:#22D32B;}
</style>
<g id="Layer_1_1_">
	<g id="surface1">
		<path class="st0" d="M60.1,20h10.1v10H60.1V20z"></path>
		<path class="st0" d="M40.1,20h10.1v10H40.1V20z"></path>
		<path class="st1" d="M50.1,40.1h10.1v10.1H50.1V40.1z"></path>
		<path class="st0" d="M50,30.1h10.1v10.1H50V30.1z"></path>
		<path class="st0" d="M70.2,10h10.1v10.1H70.2V10z"></path>
		<path class="st2" d="M30.1,10h10.1v10.1H30.1V10z"></path>
		<path class="st1" d="M80.2,10h10.1v10.1H80.2V10z"></path>
		<path class="st0" d="M20.1,10h10.1v10.1H20.1V10z"></path>
		<path class="st3" d="M0,20h10.1v10H0V20z"></path>
		<path class="st2" d="M0,30.1h10.1v10.1H0V30.1z"></path>
		<path class="st0" d="M0,40.1h10.1v10.1H0V40.1z"></path>
		<path class="st1" d="M0,50.1h10.1v10.1H0V50.1z"></path>
		<path class="st3" d="M0,60.1h10.1v10.1H0V60.1z"></path>
		<path class="st0" d="M30,70.2H40v10.1H30V70.2z"></path>
		<path class="st2" d="M0,70.2h10.1v10.1H0V70.2z"></path>
		<path class="st0" d="M0,80.2h10.1v10.1H0V80.2z"></path>
		<path class="st2" d="M30,80.2h10.1v10.1H30V80.2z"></path>
		<path class="st1" d="M0,90.2h10.1v10.1H0V90.2z"></path>
		<path class="st3" d="M0,100.3h10.1v10.1H0V100.3z"></path>
		<path class="st1" d="M20.1,100.3h10.1v10.1H20.1V100.3z"></path>
		<path class="st2" d="M40.1,100.3h10.1v10.1H40.1V100.3z"></path>
		<path class="st1" d="M50.1,80.2h10.1v10.1H50.1V80.2z"></path>
		<path class="st2" d="M50.1,90.2h10.1v10.1H50.1V90.2z"></path>
		<path class="st3" d="M40,80.2h10.2v10.2H40V80.2z"></path>
		<path class="st0" d="M40.1,90.2h10.1v10.1H40.1V90.2z"></path>
		<path class="st0" d="M10.1,100.3h10.1v10.1H10.1V100.3z"></path>
		<path class="st1" d="M40,70.2h10.1v10.1H40V70.2L40,70.2z"></path>
		<path class="st1" d="M30,60.1h10.1v10.1H30V60.1z"></path>
		<path class="st0" d="M40,60.1h10.1v10.1H40V60.1L40,60.1z"></path>
		<path class="st0" d="M60.1,80.2h10.1v10.1H60.1V80.2z"></path>
		<path class="st2" d="M60.1,70.2h10.1v10.1H60.1V70.2z"></path>
		<path class="st0" d="M50,70.2h10.2v10.2H50V70.2z"></path>
		<path class="st3" d="M30,50.1h10.1v10.1H30V50.1z"></path>
		<path class="st1" d="M60.1,60.1h10.1v10.1H60.1V60.1z"></path>
		<path class="st1" d="M60.1,90.2h10.1v10.1H60.1V90.2z"></path>
		<path class="st3" d="M60.1,100.3h10.1v10.1H60.1V100.3z"></path>
		<path class="st3" d="M90.2,100.3h10.1v10.1H90.2V100.3z"></path>
		<path class="st1" d="M30.1,90.2h10.1v10.1H30.1V90.2z"></path>
		<path class="st2" d="M70.1,100.3h10.1v10.1H70.1V100.3z"></path>
		<path class="st1" d="M100.2,100.3h10.1v10.1h-10.1V100.3z"></path>
		<path class="st3" d="M100.2,90.2h10.1v10.1h-10.1V90.2z"></path>
		<path class="st3" d="M60.1,10.1h10.1v10.1H60.1V10.1z"></path>
		<path class="st3" d="M90.2,10.1h10.1v10.1H90.2V10.1z"></path>
		<path class="st3" d="M40,10.1h10.1v10.1H40V10.1L40,10.1z"></path>
		<path class="st3" d="M10.1,10.1h10.1v10.1H10.1V10.1z"></path>
		<path class="st2" d="M100.2,80.2h10.1v10.1h-10.1V80.2z"></path>
		<path class="st0" d="M100.2,70.2h10.1v10.1h-10.1V70.2z"></path>
		<path class="st1" d="M100.2,60.1h10.1v10.1h-10.1V60.1z"></path>
		<path class="st3" d="M100.2,50.1h10.1v10.1h-10.1V50.1z"></path>
		<path class="st0" d="M100.2,30.1h10.1v10.1h-10.1V30.1z"></path>
		<path class="st2" d="M100.2,40.1h10.1v10.1h-10.1V40.1z"></path>
		<path class="st1" d="M60.1,30.1h10.1v10.1H60.1V30.1z"></path>
		<path class="st1" d="M30.1,20.1h10.1v10.1H30.1V20.1z"></path>
		<path class="st2" d="M70.1,20h10.1v10H70.1V20z"></path>
		<path class="st1" d="M100.2,20h10.1v10h-10.1V20z"></path>
		<path class="st3" d="M70.2,50.1h10.1v10.1H70.2V50.1z"></path>
		<path class="st1" d="M40.1,30.1h10.1v10.1H40.1V30.1z"></path>
		<path class="st3" d="M110.2,0h10.1v10.1h-10.1V0z"></path>
		<path class="st1" d="M0,10h10.1v10.1H0V10z"></path>
		<path class="st0" d="M50.1,20h10.1v10H50.1V20z"></path>
		<path class="st3" d="M50.1,20h10.1v10H50.1V20z"></path>
		<path class="st0" d="M70.2,70.2h10.1v10.1H70.2V70.2z"></path>
		<path class="st2" d="M70.2,60.1h10.1v10.1H70.2V60.1z"></path>
		<path class="st1" d="M70.2,80.2h10.1v10.1H70.2V80.2z"></path>
		<path class="st0" d="M30.1,100.3h10.1v10.1H30.1V100.3z"></path>
		<path class="st0" d="M80.2,100.3h10.1v10.1H80.2V100.3z"></path>
		<path class="st3" d="M70.2,90.2h10.1v10.1H70.2V90.2z"></path>
	</g>
</g>
<g>
	<path class="st4" d="M195.5,31.8h9.4v54.7c0,2.4-1.1,3.8-3.8,3.8c-2.7,0-3.8-1.4-3.8-3.8V42.2h-0.2l-7.1,10.6v1.2   c0,2.3-0.9,4.5-3.8,4.5c-2.7,0-3.8-2.2-3.8-4.5v-1.2l-7.1-10.6h-0.2v44.3c0,2.4-1.1,3.8-3.8,3.8c-2.7,0-3.8-1.4-3.8-3.8V31.8h9.4   l9.2,13.2L195.5,31.8z"></path>
	<path class="st4" d="M236.6,35.6c0.6-2,1.4-3.8,3.8-3.8c2.5,0,3.4,1.9,3.9,3.8l14.5,50.8c0.5,1.8-1.5,3.8-3.6,3.8   c-2.3,0-3.5-2-4.1-3.8l-2.8-9h-16l-2.9,9c-0.5,1.8-1.7,3.8-4.1,3.8c-2.1,0-4.1-2-3.6-3.8L236.6,35.6z M240.5,49.6h-0.1l-5.9,20.4   h11.8L240.5,49.6z"></path>
	<path class="st4" d="M283.4,39.3V42c0,2.4-1.1,3.8-3.8,3.8c-2.7,0-3.8-1.4-3.8-3.8V31.8H313V42c0,2.4-1.1,3.8-3.8,3.8   c-2.7,0-3.8-1.4-3.8-3.8v-2.7h-7.3v47.2c0,2.4-1.1,3.8-3.8,3.8c-2.7,0-3.8-1.4-3.8-3.8V39.3H283.4z"></path>
	<path class="st4" d="M337.5,86.5c0,2.4-1.1,3.8-3.8,3.8c-2.7,0-3.8-1.4-3.8-3.8V31.8h25.2c5.9,0,11.9,4.2,11.9,10.9v5.2   c0,7.1-5.9,10.7-11.9,10.7h-6.9l16.9,24.2c0.8,1.1,1.9,2.6,1.9,4c0,2.1-1.7,3.5-3.8,3.5c-1.5,0-2.5-0.9-3.3-2.1l-20.7-29.6h-1.7   V86.5z M337.5,51h16.7c2.1,0,5.4-0.2,5.4-3.2v-5.2c0-3-3.1-3.4-5.3-3.4h-16.7V51z"></path>
	<path class="st4" d="M406.4,82.7h11c2,0,3.8,1.1,3.8,3.8c0,2.7-1.8,3.8-3.8,3.8h-29.6c-2,0-3.8-1.1-3.8-3.8c0-2.7,1.8-3.8,3.8-3.8   h11V39.3h-11c-2,0-3.8-1.1-3.8-3.8c0-2.7,1.8-3.8,3.8-3.8h29.6c2,0,3.8,1.1,3.8,3.8c0,2.7-1.8,3.8-3.8,3.8h-11V82.7z"></path>
	<path class="st4" d="M452.4,61L439,38c-0.5-0.8-0.9-1.7-0.9-2.7c0-2,1.8-3.5,3.7-3.5c2.5,0,3.3,1.9,4.4,3.7l10.5,17.9l10.5-17.9   c1.1-1.8,1.9-3.7,4.4-3.7c1.9,0,3.7,1.6,3.7,3.5c0,1.1-0.4,1.9-0.9,2.7L461,61l13.4,23c0.5,0.8,0.9,1.7,0.9,2.7   c0,2-1.8,3.5-3.7,3.5c-2.5,0-3.3-1.9-4.4-3.7l-10.5-17.9l-10.5,17.9c-1.1,1.8-1.9,3.7-4.4,3.7c-1.9,0-3.7-1.6-3.7-3.5   c0-1.1,0.4-1.9,0.9-2.7L452.4,61z"></path>
	<path class="st4" d="M526.7,75.5c1.5,2,2.6,3.7,2.6,6.2c0,5.6-4.3,8.5-9.5,8.5h-16.5c-2.9,0-5.3-0.5-7.6-2.4c-2-1.7-3.5-4.4-3.5-7   c0-2.4,1.4-4.5,4-4.5c2.2,0,3.5,1.8,3.5,3.8c0,2.3,1.2,2.6,3.3,2.6h16.3c0.6,0,2.5,0.2,2.5-0.9c0-0.6-1.1-1.7-1.4-2.2l-25.8-33.1   c-1.6-2-2.5-3.5-2.5-6.2c0-3,1.4-5.6,4-7.2c2.1-1.4,3.8-1.4,6.2-1.4h15.9c2.9,0,5.3,0.6,7.4,2.5c2,1.7,3.5,4.5,3.5,7.1   c0,2.4-1.2,4.4-3.9,4.4c-2.3,0-3.6-1.4-3.6-3.5c0-2.6-1.3-2.9-3.6-2.9h-15.9c-0.8,0-2.6-0.2-2.6,1.1c0,0.7,0.8,1.6,1.1,2   L526.7,75.5z"></path>
	<path class="st4" d="M569.5,90.2c-2.6,0-4.1-0.5-4.6-3.2h-0.2c-0.5,2.7-2,3.2-4.6,3.2h-5.6c-2.6,0-3.3-0.5-4.6-2.7l-2.6-4.6   c-1-1.7-1.1-1.8-1.1-3.8V35.5c0-2.4,1.1-3.8,3.8-3.8c2.7,0,3.8,1.4,3.8,3.8v43.6l2,3.6h3.2l2-3.6V55.5c0-2.3,1.1-4.4,3.8-4.4   c2.7,0,3.8,2.1,3.8,4.4v23.7l2,3.6h3.2l2-3.6V35.5c0-2.4,1.1-3.8,3.8-3.8c2.7,0,3.8,1.4,3.8,3.8v43.6c0,2-0.1,2.2-1.1,3.8l-2.6,4.6   c-1.3,2.3-2,2.7-4.6,2.7H569.5z"></path>
	<path class="st4" d="M615.1,35.6c0.6-2,1.4-3.8,3.8-3.8c2.5,0,3.4,1.9,3.9,3.8l14.5,50.8c0.5,1.8-1.5,3.8-3.6,3.8   c-2.3,0-3.5-2-4.1-3.8l-2.8-9h-16l-2.9,9c-0.5,1.8-1.7,3.8-4.1,3.8c-2.1,0-4.1-2-3.6-3.8L615.1,35.6z M619,49.6h-0.2L613,69.9h11.8   L619,49.6z"></path>
	<path class="st4" d="M661.9,86.5c0,2.4-1.1,3.8-3.8,3.8c-2.7,0-3.8-1.4-3.8-3.8V31.8h24.9c3.5,0,5.9,0.5,8.6,3.1   c3.2,3,3.5,5.8,3.5,9.8v10.2c0,3.8-0.3,6.5-3.1,9.6c-2.9,3.3-6,3.6-10.1,3.6h-16.4V86.5z M661.9,60.6h16.7c4.4,0,5.4-1.1,5.4-5.4   V44.7c0-4.3-1-5.4-5.4-5.4h-16.7V60.6z"></path>
</g>
</svg>