<svg id="Layer_1" data-name="Layer 1" xmlns="http://www.w3.org/2000/svg" viewBox="0 0 700 642.1"><defs><style>.cls-1{opacity:0.9;}.cls-2{opacity:0.8;}.cls-3{opacity:0.7;}</style></defs><g id="Layer_1-2" data-name="Layer 1"><g id="surface1"><path class="cls-1" d="M349.9,116.57h58.48v58.48H349.9Z"/><path class="cls-1" d="M233.53,116.57H292v58.48H233.53Z"/><path class="cls-2" d="M291.62,233.33H350.1v58.48H291.62Z"/><path class="cls-1" d="M291.24,174.86h58.47v58.47H291.24Z"/><path class="cls-1" d="M408.19,58.29h58.48v58.47H408.19Z"/><path d="M175.24,58.29h58.48v58.47H175.24Z"/><path class="cls-2" d="M466.67,58.29h58.47v58.47H466.67Z"/><path class="cls-1" d="M116.76,58.29h58.48v58.47H116.76Z"/><path class="cls-3" d="M0,116.57H58.48v58.48H0Z"/><path d="M0,174.86H58.48v58.47H0Z"/><path class="cls-1" d="M0,233.33H58.48v58.48H0Z"/><path class="cls-2" d="M0,291.62H58.48V350.1H0Z"/><path class="cls-3" d="M0,349.9H58.48v58.48H0Z"/><path class="cls-1" d="M174.47,408.38H233v58.48H174.47Z"/><path d="M0,408.38H58.48v58.48H0Z"/><path class="cls-1" d="M0,466.67H58.48v58.47H0Z"/><path d="M174.66,466.67h58.48v58.47H174.66Z"/><path class="cls-2" d="M0,525H58.48v58.48H0Z"/><path class="cls-3" d="M0,583.43H58.48v58.48H0Z"/><path class="cls-3" d="M116.76,583.43h58.48v58.48H116.76Z"/><path class="cls-1" d="M233.53,583.43H292v58.48H233.53Z"/><path class="cls-2" d="M291.62,466.67H350.1v58.47H291.62Z"/><path d="M291.81,525h58.48v58.48H291.81Z"/><path class="cls-3" d="M233,466.67H292v59.05H233Z"/><path class="cls-2" d="M233.53,525H292v58.48H233.53Z"/><path d="M58.48,583.43H117v58.48H58.48Z"/><path class="cls-2" d="M233,408.19h58.48v58.48H233V408.19Z"/><path class="cls-2" d="M174.66,349.9h58.48v58.48H174.66Z"/><path class="cls-1" d="M233,349.9h58.48v58.48H233V349.9Z"/><path class="cls-1" d="M349.9,466.67h58.48v58.47H349.9Z"/><path d="M349.9,408.38h58.48v58.48H349.9Z"/><path class="cls-1" d="M291.24,408.38h59.05v59.05H291.24Z"/><path class="cls-3" d="M174.66,291.62h58.48V350.1H174.66Z"/><path class="cls-2" d="M349.9,349.9h58.48v58.48H349.9Z"/><path class="cls-2" d="M349.9,525h58.48v58.48H349.9Z"/><path class="cls-3" d="M349.9,583.43h58.48v58.48H349.9Z"/><path class="cls-3" d="M525.14,583.43h58.48v58.48H525.14Z"/><path class="cls-3" d="M175.24,525h58.48v58.48H175.24Z"/><path d="M408,583.43h58.47v58.48H408Z"/><path class="cls-2" d="M583.05,583.43h58.47v58.48H583.05Z"/><path class="cls-3" d="M583.05,525h58.47v58.48H583.05Z"/><path class="cls-3" d="M349.52,58.48H408V117H349.52Z"/><path class="cls-3" d="M525.14,58.48h58.48V117H525.14Z"/><path class="cls-3" d="M233,58.48h58.48V117H233V58.48Z"/><path class="cls-3" d="M58.48,58.48H117V117H58.48Z"/><path d="M583.05,466.67h58.47v58.47H583.05Z"/><path class="cls-1" d="M583.05,408.38h58.47v58.48H583.05Z"/><path class="cls-2" d="M583.05,349.9h58.47v58.48H583.05Z"/><path class="cls-3" d="M583.05,291.62h58.47V350.1H583.05Z"/><path class="cls-1" d="M583.05,174.86h58.47v58.47H583.05Z"/><path d="M583.05,233.33h58.47v58.48H583.05Z"/><path class="cls-2" d="M349.71,174.86h58.48v58.47H349.71Z"/><path class="cls-2" d="M175.24,117h58.48v58.48H175.24Z"/><path d="M408,116.57h58.47v58.48H408Z"/><path class="cls-2" d="M583.05,116.57h58.47v58.48H583.05Z"/><path class="cls-3" d="M408.19,291.62h58.48V350.1H408.19Z"/><path class="cls-2" d="M233.53,174.86H292v58.47H233.53Z"/><path class="cls-3" d="M641.52,0H700V58.48H641.52Z"/><path class="cls-2" d="M0,58.29H58.48v58.47H0Z"/><path class="cls-3" d="M291.62,116.57H350.1v58.48H291.62Z"/><path class="cls-1" d="M408.19,408.38h58.48v58.48H408.19Z"/><path d="M408.19,349.9h58.48v58.48H408.19Z"/><path class="cls-2" d="M408.19,466.67h58.48v58.47H408.19Z"/><path class="cls-2" d="M175.24,583.62h58.48V642.1H175.24Z"/><path class="cls-1" d="M466.67,583.43h58.47v58.48H466.67Z"/><path class="cls-3" d="M408.19,525h58.48v58.48H408.19Z"/></g></g></svg>